<svg width="40" height="40" viewBox="0 0 40 40" fill="none" xmlns="http://www.w3.org/2000/svg">
<path d="M12 20C15.8687 20 19 16.0859 19 11.25C19 6.41406 15.8687 2.5 12 2.5C8.13125 2.5 5 6.41406 5 11.25C5 16.0859 8.13125 20 12 20ZM16.8 22.5H16.2812C14.9812 23.2812 13.5375 23.75 12 23.75C10.4625 23.75 9.025 23.2812 7.71875 22.5H7.2C3.225 22.5 0 26.5313 0 31.5V33.75C0 35.8203 1.34375 37.5 3 37.5H21C22.6562 37.5 24 35.8203 24 33.75V31.5C24 26.5313 20.775 22.5 16.8 22.5ZM30 20C33.3125 20 36 16.6406 36 12.5C36 8.35938 33.3125 5 30 5C26.6875 5 24 8.35938 24 12.5C24 16.6406 26.6875 20 30 20ZM33 22.5H32.7625C31.8938 22.875 30.975 23.125 30 23.125C29.025 23.125 28.1062 22.875 27.2375 22.5H27C25.725 22.5 24.55 22.9609 23.5187 23.7031C25.0437 25.7578 26 28.4844 26 31.5V34.5C26 34.6719 25.9688 34.8359 25.9625 35H37C38.6562 35 40 33.3203 40 31.25C40 26.4141 36.8688 22.5 33 22.5Z" fill="#B4AEE3"/>
</svg>
