<svg width="50" height="50" viewBox="0 0 50 50" fill="none" xmlns="http://www.w3.org/2000/svg">
<rect width="50" height="50" rx="10" fill="#B4AEE3"/>
<path d="M38.4466 27.832C38.5746 27.7893 38.7666 27.768 39.0226 27.768C39.748 27.768 40.1106 28.2373 40.1106 29.176C40.1106 29.688 39.9933 30.1253 39.7586 30.488C39.5453 30.8293 39.204 31.0427 38.7346 31.128C36.7933 31.4907 34.884 31.896 33.0066 32.344L32.9106 33.112C32.3133 37.3147 31.1186 40.4187 29.3266 42.424C27.556 44.4507 25.3373 45.464 22.6706 45.464C20.9 45.464 19.524 45.0267 18.5426 44.152C17.5826 43.2987 17.1026 42.2 17.1026 40.856C17.1026 38.616 18.1053 36.6213 20.1106 34.872C22.116 33.1227 25.156 31.576 29.2306 30.232L29.8706 25.72C29.956 25.208 30.0626 24.5253 30.1906 23.672C29.188 26.3173 27.908 28.2907 26.3506 29.592C24.7933 30.8933 23.0546 31.544 21.1346 31.544C19.3 31.544 17.9026 30.9893 16.9426 29.88C15.9826 28.7493 15.5026 27.2987 15.5026 25.528C15.5026 24.7387 15.588 23.8747 15.7586 22.936C15.9293 21.976 16.196 20.6853 16.5586 19.064C16.8786 17.592 17.1133 16.4187 17.2626 15.544C17.4333 14.6693 17.5186 13.8907 17.5186 13.208C17.5186 12.184 17.124 11.672 16.3346 11.672C15.716 11.672 14.98 11.9813 14.1266 12.6C13.2946 13.1973 12.4093 14.1253 11.4706 15.384C11.172 15.7893 10.8413 15.992 10.4786 15.992C10.18 15.992 9.91329 15.8533 9.67863 15.576C9.46529 15.2773 9.35862 14.9467 9.35862 14.584C9.35862 13.9227 9.65729 13.176 10.2546 12.344C12.4306 9.35733 14.98 7.864 17.9026 7.864C19.204 7.864 20.2173 8.25867 20.9426 9.048C21.6893 9.83733 22.0626 11 22.0626 12.536C22.0626 13.6453 21.956 14.7867 21.7426 15.96C21.5506 17.112 21.252 18.584 20.8466 20.376C20.5906 21.4427 20.3986 22.3067 20.2706 22.968C20.1426 23.608 20.0786 24.1413 20.0786 24.568C20.0786 25.656 20.2706 26.4347 20.6546 26.904C21.0386 27.3733 21.7106 27.608 22.6706 27.608C23.8226 27.608 24.996 26.9787 26.1906 25.72C27.4066 24.44 28.4946 22.5093 29.4546 19.928C30.436 17.3467 31.14 14.1893 31.5666 10.456C31.6733 9.51733 31.9186 8.856 32.3026 8.472C32.6866 8.06667 33.2413 7.864 33.9666 7.864C35.46 7.864 36.2066 8.61067 36.2066 10.104C36.2066 10.36 36.196 10.5627 36.1746 10.712C35.7266 13.8907 35.3106 16.76 34.9266 19.32C34.7133 20.856 34.4786 22.4347 34.2226 24.056C33.988 25.6773 33.7533 27.32 33.5186 28.984C35.076 28.5573 36.7186 28.1733 38.4466 27.832ZM28.7506 33.592C23.588 35.384 21.0066 37.56 21.0066 40.12C21.0066 40.7173 21.188 41.208 21.5506 41.592C21.9346 41.9973 22.468 42.2 23.1506 42.2C26.116 42.2 27.972 39.4053 28.7186 33.816L28.7506 33.592Z" fill="black"/>
</svg>
