<svg width="40" height="40" viewBox="0 0 40 40" fill="none" xmlns="http://www.w3.org/2000/svg">
<g clip-path="url(#clip0_209_214)">
<path d="M35.0004 8.63335V28.3333C35.0001 29.8008 34.5155 31.2272 33.622 32.3913C32.7284 33.5554 31.4757 34.3921 30.0581 34.7716C28.6405 35.1512 27.1374 35.0525 25.7816 34.4907C24.4259 33.9289 23.2935 32.9355 22.5599 31.6645C21.8262 30.3936 21.5325 28.916 21.7242 27.4611C21.9158 26.0062 22.5822 24.6552 23.6199 23.6175C24.6577 22.5799 26.0088 21.9137 27.4637 21.7222C28.9187 21.5307 30.3962 21.8246 31.6671 22.5583V15.3017L15.0004 18.0783V30C15.0004 30.1 14.9921 30.195 14.9754 30.29C15.095 31.5716 14.7874 32.8569 14.1005 33.9454C13.4135 35.034 12.3858 35.8648 11.1774 36.3083C9.96907 36.7519 8.64792 36.7833 7.41984 36.3977C6.19175 36.0121 5.12569 35.2311 4.38776 34.1764C3.64982 33.1218 3.28145 31.8526 3.34003 30.5668C3.39862 29.2809 3.88087 28.0505 4.71166 27.0673C5.54244 26.0841 6.6751 25.4033 7.93316 25.131C9.19123 24.8587 10.504 25.0101 11.6671 25.5617V11.4117C11.667 10.6226 11.9468 9.8591 12.4568 9.25697C12.9667 8.65484 13.6737 8.25315 14.4521 8.12335L31.1187 5.34668C31.5962 5.26706 32.0852 5.29237 32.5519 5.42085C33.0185 5.54933 33.4516 5.77791 33.821 6.09069C34.1904 6.40346 34.4873 6.79294 34.691 7.23203C34.8946 7.67113 35.0002 8.14932 35.0004 8.63335ZM9.16706 28.3333C8.50402 28.3333 7.86814 28.5967 7.3993 29.0656C6.93045 29.5344 6.66706 30.1703 6.66706 30.8333C6.66706 31.4964 6.93045 32.1323 7.3993 32.6011C7.86814 33.07 8.50402 33.3333 9.16706 33.3333C9.8301 33.3333 10.466 33.07 10.9348 32.6011C11.4037 32.1323 11.6671 31.4964 11.6671 30.8333C11.6671 30.1703 11.4037 29.5344 10.9348 29.0656C10.466 28.5967 9.8301 28.3333 9.16706 28.3333ZM28.3337 25C27.4497 25 26.6018 25.3512 25.9767 25.9763C25.3516 26.6014 25.0004 27.4493 25.0004 28.3333C25.0004 29.2174 25.3516 30.0652 25.9767 30.6904C26.6018 31.3155 27.4497 31.6667 28.3337 31.6667C29.2178 31.6667 30.0656 31.3155 30.6908 30.6904C31.3159 30.0652 31.6671 29.2174 31.6671 28.3333C31.6671 27.4493 31.3159 26.6014 30.6908 25.9763C30.0656 25.3512 29.2178 25 28.3337 25ZM31.6671 8.63335L15.0004 11.4117V14.7L31.6671 11.9217V8.63335Z" fill="#B4AEE3"/>
</g>
<defs>
<clipPath id="clip0_209_214">
<rect width="40" height="40" fill="white"/>
</clipPath>
</defs>
</svg>
