<svg width="36" height="40" viewBox="0 0 36 40" fill="none" xmlns="http://www.w3.org/2000/svg">
<path d="M14.2921 2.49949C14.5909 1.76099 15.1035 1.12855 15.7641 0.683229C16.4247 0.237908 17.2033 0 18 0C18.7967 0 19.5753 0.237908 20.2359 0.683229C20.8965 1.12855 21.4091 1.76099 21.7079 2.49949C24.6654 3.31277 27.2741 5.07433 29.1333 7.51363C30.9926 9.95293 31.9996 12.9351 31.9998 16.0021V25.3951L35.6637 30.8905C35.8647 31.1917 35.9801 31.5417 35.9976 31.9034C36.0152 32.265 35.9343 32.6246 35.7635 32.9438C35.5926 33.263 35.3384 33.5299 35.0277 33.716C34.7171 33.902 34.3618 34.0002 33.9997 34.0002H24.9299C24.6891 35.6662 23.856 37.1897 22.5833 38.2916C21.3106 39.3935 19.6835 40 18 40C16.3165 40 14.6894 39.3935 13.4167 38.2916C12.144 37.1897 11.3109 35.6662 11.0701 34.0002H2.00027C1.63819 34.0002 1.28288 33.902 0.972265 33.716C0.661646 33.5299 0.407364 33.263 0.236547 32.9438C0.0657309 32.6246 -0.0152113 32.265 0.00235566 31.9034C0.0199226 31.5417 0.13534 31.1917 0.336294 30.8905L4.00023 25.3951V16.0021C4.00023 9.55475 8.36016 4.12332 14.2921 2.49949ZM15.172 34.0002C15.3786 34.5854 15.7616 35.0922 16.2683 35.4506C16.7749 35.8091 17.3803 36.0016 18.001 36.0016C18.6217 36.0016 19.2271 35.8091 19.7337 35.4506C20.2404 35.0922 20.6234 34.5854 20.83 34.0002H15.172ZM18 6.00312C15.3479 6.00312 12.8044 7.05658 10.929 8.93175C9.05372 10.8069 8.00017 13.3502 8.00017 16.0021V26.001C8.00026 26.396 7.88334 26.7822 7.66417 27.1109L5.7382 30.0006H30.2598L28.3338 27.1109C28.1154 26.782 27.9992 26.3958 27.9998 26.001V16.0021C27.9998 13.3502 26.9463 10.8069 25.071 8.93175C23.1956 7.05658 20.6521 6.00312 18 6.00312Z" fill="#666666"/>
</svg>
