<svg width="40" height="40" viewBox="0 0 40 40" fill="none" xmlns="http://www.w3.org/2000/svg">
<path d="M14.688 19.3533C15.4497 18.7199 16.218 18.7199 16.998 19.3716L17.178 19.5349L25.488 27.8449L25.6447 27.9833C25.9654 28.2318 26.3657 28.3549 26.7707 28.3293C27.1756 28.3038 27.5573 28.1314 27.8442 27.8445C28.1311 27.5576 28.3035 27.1759 28.3291 26.7709C28.3546 26.366 28.2316 25.9656 27.983 25.6449L27.8447 25.4883L25.6913 23.3333L26.178 22.8449L26.3547 22.6866C27.1163 22.0533 27.8847 22.0533 28.6647 22.7049L28.8447 22.8683L36.6347 30.6599C36.4769 32.247 35.7553 33.725 34.6009 34.8256C33.4465 35.9261 31.9358 36.5764 30.343 36.6583L29.9997 36.6666H9.99967C8.34619 36.6665 6.75174 36.0519 5.52594 34.9422C4.30013 33.8325 3.53045 32.3069 3.36634 30.6616L14.5113 19.5116L14.688 19.3533ZM29.9997 3.33325C31.7101 3.33325 33.3551 3.99064 34.5944 5.16946C35.8337 6.34827 36.5725 7.95832 36.658 9.66659L36.6663 9.99992V25.9749L31.178 20.4883L30.928 20.2599C28.8347 18.4349 26.178 18.4316 24.1013 20.2316L23.8447 20.4649L23.333 20.9749L19.5113 17.1549L19.2613 16.9266C17.168 15.1016 14.5113 15.0983 12.4347 16.8983L12.178 17.1316L3.33301 25.9749V9.99992C3.33301 8.28951 3.9904 6.64454 5.16921 5.40523C6.34803 4.16593 7.95808 3.42711 9.66634 3.34159L9.99967 3.33325H29.9997ZM25.0163 11.6666L24.8047 11.6783C24.3996 11.7264 24.0262 11.9215 23.7554 12.2265C23.4845 12.5315 23.3349 12.9253 23.3349 13.3333C23.3349 13.7412 23.4845 14.135 23.7554 14.44C24.0262 14.745 24.3996 14.9401 24.8047 14.9883L24.9997 14.9999L25.2113 14.9883C25.6164 14.9401 25.9898 14.745 26.2607 14.44C26.5315 14.135 26.6812 13.7412 26.6812 13.3333C26.6812 12.9253 26.5315 12.5315 26.2607 12.2265C25.9898 11.9215 25.6164 11.7264 25.2113 11.6783L25.0163 11.6666Z" fill="#B4AEE3"/>
</svg>
