<svg width="40" height="40" viewBox="0 0 40 40" fill="none" xmlns="http://www.w3.org/2000/svg">
<path opacity="0.5" d="M13.333 9.16658H26.6663C27.9924 9.16658 29.2642 8.6398 30.2019 7.70212C31.1396 6.76444 31.6663 5.49267 31.6663 4.16659C31.6663 3.94557 31.5785 3.73361 31.4223 3.57733C31.266 3.42105 31.054 3.33325 30.833 3.33325H9.16634C8.94533 3.33325 8.73337 3.42105 8.57709 3.57733C8.42081 3.73361 8.33301 3.94557 8.33301 4.16659C8.33301 5.49267 8.85979 6.76444 9.79747 7.70212C10.7352 8.6398 12.0069 9.16658 13.333 9.16658ZM26.6663 30.8333H13.333C12.0069 30.8333 10.7352 31.36 9.79747 32.2977C8.85979 33.2354 8.33301 34.5072 8.33301 35.8333C8.33301 36.0543 8.42081 36.2662 8.57709 36.4225C8.73337 36.5788 8.94533 36.6666 9.16634 36.6666H30.833C31.054 36.6666 31.266 36.5788 31.4223 36.4225C31.5785 36.2662 31.6663 36.0543 31.6663 35.8333C31.6663 34.5072 31.1396 33.2354 30.2019 32.2977C29.2642 31.36 27.9924 30.8333 26.6663 30.8333Z" fill="#B4AEE3"/>
<path d="M8.33301 19.1667C8.33301 16.0233 8.33301 14.4533 9.30967 13.4767C10.2863 12.5 11.8563 12.5 14.9997 12.5H24.9997C28.143 12.5 29.713 12.5 30.6897 13.4767C31.6663 14.4533 31.6663 16.0233 31.6663 19.1667V20.8333C31.6663 23.9767 31.6663 25.5467 30.6897 26.5233C29.713 27.5 28.143 27.5 24.9997 27.5H14.9997C11.8563 27.5 10.2863 27.5 9.30967 26.5233C8.33301 25.5467 8.33301 23.9767 8.33301 20.8333V19.1667Z" fill="#B4AEE3"/>
</svg>
