<svg width="40" height="40" viewBox="0 0 40 40" fill="none" xmlns="http://www.w3.org/2000/svg">
<path d="M19.9997 3.125C17.573 3.12715 15.1752 3.65268 12.9701 4.66574C10.7649 5.6788 8.80416 7.15555 7.22161 8.99528C5.63906 10.835 4.47191 12.9944 3.79979 15.3262C3.12767 17.658 2.96639 20.1074 3.32694 22.5072C3.68749 24.907 4.56139 27.2008 5.88904 29.2322C7.21669 31.2635 8.96685 32.9846 11.0201 34.2781C13.0734 35.5716 15.3815 36.407 17.787 36.7273C20.1925 37.0477 22.6388 36.8454 24.9591 36.1344C25.2541 36.0447 25.5224 35.8837 25.7403 35.6656L35.6731 25.7328C35.891 25.5147 36.052 25.2464 36.1419 24.9516C36.9139 22.4273 37.0834 19.7572 36.6369 17.1556C36.1903 14.5539 35.1401 12.0932 33.5705 9.97089C32.0009 7.84857 29.9556 6.12374 27.5988 4.93484C25.2421 3.74594 22.6394 3.12608 19.9997 3.125ZM32.6747 23.4234L23.4247 32.6734C20.6379 33.4232 17.6815 33.2321 15.0144 32.1297C12.3473 31.0274 10.1186 29.0755 8.67438 26.5769C7.23013 24.0783 6.65105 21.1729 7.02701 18.3116C7.40297 15.4502 8.71294 12.793 10.7536 10.7523C12.7943 8.71168 15.4515 7.4017 18.3128 7.02574C21.1742 6.64978 24.0796 7.22887 26.5782 8.67311C29.0767 10.1174 31.0287 12.346 32.131 15.0131C33.2334 17.6802 33.4245 20.6366 32.6747 23.4234ZM11.8747 16.875C11.8747 16.3805 12.0213 15.8972 12.296 15.4861C12.5707 15.075 12.9612 14.7545 13.418 14.5653C13.8748 14.3761 14.3775 14.3266 14.8624 14.423C15.3474 14.5195 15.7928 14.7576 16.1425 15.1072C16.4921 15.4569 16.7302 15.9023 16.8267 16.3873C16.9231 16.8722 16.8736 17.3749 16.6844 17.8317C16.4952 18.2885 16.1747 18.679 15.7636 18.9537C15.3525 19.2284 14.8692 19.375 14.3747 19.375C13.7117 19.375 13.0758 19.1116 12.6069 18.6428C12.1381 18.1739 11.8747 17.538 11.8747 16.875ZM28.1247 16.875C28.1247 17.3695 27.9781 17.8528 27.7034 18.2639C27.4287 18.675 27.0382 18.9955 26.5814 19.1847C26.1246 19.3739 25.6219 19.4234 25.137 19.327C24.652 19.2305 24.2066 18.9924 23.8569 18.6428C23.5073 18.2931 23.2692 17.8477 23.1727 17.3627C23.0763 16.8778 23.1258 16.3751 23.315 15.9183C23.5042 15.4615 23.8247 15.071 24.2358 14.7963C24.6469 14.5216 25.1302 14.375 25.6247 14.375C26.2877 14.375 26.9236 14.6384 27.3925 15.1072C27.8613 15.5761 28.1247 16.212 28.1247 16.875ZM27.8731 24.6875C26.1544 27.6656 23.281 29.375 19.9997 29.375C16.7185 29.375 13.8497 27.6672 12.1263 24.6875C11.8883 24.2576 11.8287 23.7515 11.9601 23.278C12.0916 22.8046 12.4036 22.4016 12.8291 22.1559C13.2547 21.9102 13.7596 21.8413 14.2354 21.9641C14.7111 22.0869 15.1197 22.3915 15.3731 22.8125C15.981 23.8641 17.3903 25.625 19.9997 25.625C22.6091 25.625 24.0185 23.8625 24.6263 22.8125C24.7469 22.5945 24.9097 22.4028 25.1053 22.2485C25.3008 22.0942 25.5252 21.9804 25.7652 21.9137C26.0052 21.8471 26.2561 21.8289 26.5032 21.8604C26.7504 21.8918 26.9887 21.9721 27.2045 22.0967C27.4202 22.2213 27.6089 22.3876 27.7596 22.5859C27.9104 22.7842 28.0201 23.0106 28.0823 23.2518C28.1446 23.493 28.1581 23.7442 28.1222 23.9907C28.0863 24.2372 28.0016 24.4741 27.8731 24.6875Z" fill="#B4AEE3"/>
</svg>
