<svg width="40" height="40" viewBox="0 0 40 40" fill="none" xmlns="http://www.w3.org/2000/svg">
<path fill-rule="evenodd" clip-rule="evenodd" d="M12.704 8.32525C15.1304 8.11483 17.5645 8.00629 20 7.99992C22.5067 7.99992 24.9813 8.13059 27.296 8.32525C30.08 8.55992 31.8827 8.71992 33.2587 9.04525C34.512 9.34125 35.2133 9.73325 35.816 10.3493C35.88 10.4159 35.976 10.5173 36.0347 10.5893C36.568 11.2026 36.9147 11.9706 37.1147 13.4213C37.328 14.9759 37.3333 17.0026 37.3333 20.0666C37.3333 23.0933 37.328 25.0933 37.1147 26.6266C36.9173 28.0559 36.5707 28.8159 36.0347 29.4373C35.9631 29.5192 35.8893 29.5993 35.8133 29.6773C35.2 30.3013 34.5067 30.6879 33.2853 30.9759C31.9333 31.2959 30.1707 31.4506 27.4347 31.6799C25.1173 31.8719 22.6027 31.9999 20 31.9999C17.3973 31.9999 14.88 31.8719 12.5653 31.6799C9.82933 31.4506 8.06667 31.2959 6.71467 30.9759C5.49067 30.6879 4.79733 30.3013 4.18667 29.6773C4.11077 29.5992 4.03697 29.5192 3.96533 29.4373C3.432 28.8159 3.08533 28.0559 2.88533 26.6266C2.672 25.0933 2.66667 23.0933 2.66667 20.0666C2.66667 17.0026 2.672 14.9733 2.88533 13.4213C3.08533 11.9706 3.432 11.2026 3.96533 10.5893C4.02667 10.5173 4.12 10.4159 4.184 10.3493C4.78667 9.73325 5.488 9.34125 6.74133 9.04525C8.12 8.71992 9.92 8.55992 12.704 8.32525ZM0 20.0666C0 14.0879 0 11.0986 1.94667 8.84525C2.04267 8.73325 2.17333 8.59192 2.27733 8.48525C4.35733 6.35459 7.06667 6.12525 12.48 5.66925C14.8533 5.46659 17.4053 5.33325 20 5.33325C22.5947 5.33325 25.1467 5.46659 27.52 5.66925C32.9333 6.12525 35.6427 6.35459 37.7227 8.48525C37.8267 8.59192 37.9547 8.73325 38.0533 8.84525C40 11.0986 40 14.0879 40 20.0666C40 25.9733 40 28.9279 38.0507 31.1813C37.943 31.3044 37.8318 31.4244 37.7173 31.5413C35.6347 33.6719 32.976 33.8933 27.656 34.3359C25.28 34.5359 22.688 34.6666 20 34.6666C17.312 34.6666 14.72 34.5333 12.3467 34.3359C7.024 33.8933 4.36533 33.6693 2.28267 31.5413C2.16825 31.4244 2.05709 31.3043 1.94933 31.1813C0 28.9279 0 25.9733 0 20.0666ZM14 14.3546C13.9996 14.2437 14.0269 14.1345 14.0794 14.0368C14.1319 13.9391 14.2079 13.856 14.3005 13.7951C14.3932 13.7342 14.4996 13.6974 14.6101 13.688C14.7206 13.6786 14.8317 13.6969 14.9333 13.7413L27.808 19.3893C28.3413 19.6239 28.3413 20.3759 27.808 20.6106L14.9333 26.2559C14.8319 26.3002 14.7211 26.3185 14.6108 26.3092C14.5005 26.3 14.3943 26.2634 14.3017 26.2028C14.2091 26.1422 14.133 26.0595 14.0803 25.9622C14.0277 25.8648 14.0001 25.7559 14 25.6453V14.3546Z" fill="#B4AEE3"/>
</svg>
